<?xml version="1.0" standalone="no"?>
<!DOCTYPE svg PUBLIC "-//W3C//DTD SVG 20010904//EN"
 "http://www.w3.org/TR/2001/REC-SVG-20010904/DTD/svg10.dtd">
<svg version="1.0" xmlns="http://www.w3.org/2000/svg"
 width="728.000000pt" height="728.000000pt" viewBox="0 0 728.000000 728.000000"
 preserveAspectRatio="xMidYMid meet">
<metadata>
Created by potrace 1.11, written by Peter Selinger 2001-2013
</metadata>
<g transform="translate(0.000000,728.000000) scale(0.100000,-0.100000)"
fill="#000000" stroke="none">
<path d="M1519 7246 c-2 -3 -61 -14 -129 -26 -135 -23 -233 -45 -265 -60 -11
-5 -56 -21 -99 -35 -186 -59 -365 -173 -527 -335 -131 -131 -197 -216 -268
-345 -94 -170 -150 -349 -194 -623 l-22 -137 -2 -2010 c-3 -1982 -3 -2012 17
-2145 12 -74 26 -153 32 -175 14 -49 13 -47 22 -115 8 -61 46 -189 70 -235 9
-16 16 -36 16 -44 0 -7 11 -26 25 -43 14 -16 25 -37 25 -45 0 -27 66 -134 136
-222 95 -118 176 -198 319 -313 76 -61 221 -138 262 -138 12 0 26 -7 31 -15 4
-9 26 -18 48 -22 21 -3 66 -18 99 -34 40 -19 117 -39 235 -61 l175 -32 2113
-3 2112 -3 128 26 c334 67 518 139 706 277 96 70 270 244 343 341 199 267 294
593 311 1065 9 256 9 3648 0 3856 -15 328 -71 571 -184 798 -73 147 -137 233
-277 376 -235 240 -429 345 -782 426 -66 15 -146 33 -178 41 -49 12 -398 14
-2176 14 -1165 0 -2120 -2 -2122 -4z"/>
</g>
</svg>
